# Blender v2.93.3 OBJ File: 'Raquet.blend'
# www.blender.org
mtllib Raquet.mtl
o Cube.001
v -0.100000 0.864813 0.076222
v -0.040383 3.823574 0.383016
v -0.100000 0.864813 -0.076222
v -0.040383 3.823574 -0.383016
v 0.100000 0.864813 0.076222
v 0.040383 3.823574 0.383016
v 0.100000 0.864813 -0.076222
v 0.040383 3.823574 -0.383016
v -0.040383 1.371693 0.180655
v -0.040383 1.371693 -0.180655
v 0.040383 1.371693 -0.180655
v 0.040383 1.371693 0.180655
v -0.100000 1.575433 0.531270
v -0.100000 1.575433 -0.531270
v 0.100000 1.575433 -0.531270
v 0.100000 1.575433 0.531270
v -0.100000 3.665581 0.626248
v -0.100000 3.665581 -0.626248
v 0.100000 3.665581 -0.626248
v 0.100000 3.665581 0.626248
v -0.100000 3.386591 -0.820630
v 0.100000 3.386591 -0.820630
v 0.100000 3.386591 0.820630
v -0.100000 3.386591 0.820630
v -0.100000 3.744857 0.726699
v -0.100000 3.960443 0.427147
v -0.100000 3.960443 -0.427147
v 0.100000 3.960443 -0.427147
v 0.100000 3.960443 0.427147
v -0.100000 1.494053 -0.633021
v -0.100000 1.177283 -0.147834
v 0.100000 1.494053 -0.633021
v 0.100000 1.177283 -0.147834
v 0.100000 1.494053 0.633021
v 0.100000 1.177283 0.147834
v -0.100000 1.177283 0.147834
v -0.100000 1.494053 0.633021
v -0.100000 3.389900 -0.952243
v 0.100000 3.389900 -0.952243
v 0.100000 3.389900 0.952243
v -0.100000 3.389900 0.952243
v -0.100000 3.744857 -0.726699
v 0.100000 3.744857 -0.726699
v 0.100000 3.744857 0.726699
v -0.040383 3.656658 0.614942
v -0.100000 3.837421 0.387480
v -0.100000 3.837421 -0.387480
v 0.100000 3.837421 -0.387480
v 0.100000 3.837421 0.387480
v -0.040383 1.584593 -0.519817
v -0.100000 1.357846 -0.184641
v 0.040383 1.584593 -0.519817
v 0.100000 1.357846 -0.184641
v 0.040383 1.584593 0.519817
v 0.100000 1.357846 0.184641
v -0.100000 1.357846 0.184641
v -0.040383 1.584593 0.519817
v -0.040383 3.386218 -0.805816
v 0.040383 3.386218 -0.805816
v 0.040383 3.386218 0.805816
v -0.040383 3.386218 0.805816
v -0.040383 3.656658 -0.614942
v 0.040383 3.656658 -0.614942
v 0.040383 3.656658 0.614942
v -0.112366 0.776620 -0.135335
v -0.112366 0.776620 0.135335
v -0.100000 1.234824 -0.220054
v 0.100000 1.234824 -0.220054
v 0.112366 0.776620 -0.135335
v 0.112366 0.776620 0.135335
v 0.100000 1.234824 0.220054
v -0.100000 1.234824 0.220054
v -0.112366 0.033262 -0.135335
v -0.112366 0.033262 0.135335
v 0.112366 0.033262 -0.135335
v 0.112366 0.033262 0.135335
v -0.100000 0.807272 -0.122068
v -0.100000 0.807272 0.122068
v 0.100000 0.807272 -0.122068
v 0.100000 0.807272 0.122068
v -0.100000 0.002609 -0.122068
v -0.100000 0.002609 0.122068
v 0.100000 0.002609 -0.122068
v 0.100000 0.002609 0.122068
v -0.100000 1.885581 -0.911795
v 0.100000 1.885581 -0.911795
v 0.100000 1.885581 0.911795
v -0.100000 1.885581 0.911795
v -0.100000 1.924616 -0.777571
v 0.100000 1.924616 -0.777571
v 0.100000 1.924616 0.777571
v -0.100000 1.924616 0.777571
v -0.040383 1.929010 -0.762463
v 0.040383 1.929010 -0.762463
v 0.040383 1.929010 0.762463
v -0.040383 1.929010 0.762463
v -0.100000 2.390923 1.106312
v -0.100000 2.408790 0.948536
v -0.040383 2.410801 0.930778
v -0.100000 2.390923 -1.106312
v 0.100000 2.390923 -1.106312
v 0.100000 2.390923 1.106312
v -0.100000 2.408790 -0.948536
v 0.100000 2.408790 -0.948536
v 0.100000 2.408790 0.948536
v -0.040383 2.410801 -0.930778
v 0.040383 2.410801 -0.930778
v 0.040383 2.410801 0.930778
v -0.100000 2.950680 1.093735
v -0.100000 2.957959 0.939979
v -0.040383 2.958778 0.922673
v -0.100000 2.950680 -1.093735
v 0.100000 2.950680 -1.093735
v 0.100000 2.950680 1.093735
v -0.100000 2.957959 -0.939979
v 0.100000 2.957959 -0.939979
v 0.100000 2.957959 0.939979
v -0.040383 2.958778 -0.922673
v 0.040383 2.958778 -0.922673
v 0.040383 2.958778 0.922673
vt 0.982032 0.231668
vt 0.999729 0.256258
vt 0.999729 0.337475
vt 0.982032 0.362065
vt 0.000271 0.528552
vt 0.000271 0.489422
vt 0.212318 0.489422
vt 0.212318 0.528552
vt 0.757469 0.164154
vt 0.739771 0.139564
vt 0.739772 0.058346
vt 0.757469 0.033757
vt 0.212318 0.359717
vt 0.212318 0.398847
vt 0.000271 0.398847
vt 0.000271 0.359717
vt 0.647311 0.255478
vt 0.649438 0.034907
vt 0.680462 0.034907
vt 0.680462 0.255478
vt 0.212318 0.000271
vt 0.212318 0.046777
vt 0.000271 0.046777
vt 0.000271 0.000271
vt 0.000271 0.887998
vt 0.000271 0.841492
vt 0.212318 0.841492
vt 0.212318 0.887998
vt 0.212318 0.098473
vt 0.000271 0.098473
vt 0.999729 0.118109
vt 0.977157 0.154068
vt 0.977157 0.043843
vt 0.999729 0.079802
vt 0.000271 0.789797
vt 0.212318 0.789796
vt 0.739771 0.277713
vt 0.762344 0.241754
vt 0.762344 0.351979
vt 0.739771 0.316020
vt 0.212318 0.315129
vt 0.000271 0.315129
vt 0.786142 0.184391
vt 0.786142 0.013520
vt 0.000271 0.573140
vt 0.212318 0.573141
vt 0.953359 0.211431
vt 0.953359 0.382302
vt 0.908040 0.199041
vt 0.908040 0.394692
vt 0.000271 0.622065
vt 0.212318 0.622065
vt 0.831460 0.196781
vt 0.831461 0.001130
vt 0.212318 0.266204
vt 0.000271 0.266204
vt 0.254725 0.813901
vt 0.272944 0.839216
vt 0.264539 0.849866
vt 0.241681 0.818107
vt 0.254725 0.731737
vt 0.241681 0.727531
vt 0.566692 0.727748
vt 0.566692 0.812460
vt 0.553244 0.816796
vt 0.553244 0.723412
vt 0.517618 0.753242
vt 0.494549 0.716492
vt 0.503177 0.705704
vt 0.530661 0.749488
vt 0.813953 0.828178
vt 0.837738 0.790288
vt 0.851186 0.794159
vt 0.822849 0.839301
vt 0.837738 0.749921
vt 0.813953 0.712030
vt 0.822849 0.700908
vt 0.851186 0.746050
vt 0.517618 0.792395
vt 0.530661 0.796150
vt 0.494549 0.829146
vt 0.503177 0.839934
vt 0.347968 0.673159
vt 0.302523 0.685813
vt 0.302172 0.671858
vt 0.348740 0.656857
vt 0.775784 0.855102
vt 0.780050 0.869774
vt 0.662827 0.667353
vt 0.615973 0.680400
vt 0.615611 0.666013
vt 0.663622 0.650546
vt 0.302523 0.859825
vt 0.302173 0.873779
vt 0.272944 0.706422
vt 0.264539 0.695771
vt 0.585476 0.838560
vt 0.576810 0.849541
vt 0.585476 0.701648
vt 0.576810 0.690668
vt 0.615973 0.859809
vt 0.615611 0.874195
vt 0.457527 0.855260
vt 0.461666 0.869491
vt 0.297931 0.187895
vt 0.312037 0.209052
vt 0.255607 0.253218
vt 0.231149 0.214201
vt 0.298127 0.128218
vt 0.228856 0.099148
vt 0.298127 0.439914
vt 0.297931 0.499591
vt 0.232379 0.525897
vt 0.231316 0.410844
vt 0.517913 0.159038
vt 0.502467 0.129389
vt 0.560433 0.087038
vt 0.589294 0.145053
vt 0.495502 0.526783
vt 0.514806 0.498602
vt 0.589294 0.520351
vt 0.550669 0.577425
vt 0.517913 0.470734
vt 0.502467 0.441085
vt 0.560433 0.398734
vt 0.589294 0.456749
vt 0.514806 0.186906
vt 0.589294 0.208655
vt 0.495502 0.215087
vt 0.550669 0.265729
vt 0.377480 0.081074
vt 0.337097 0.091846
vt 0.302001 0.024281
vt 0.369109 0.007653
vt 0.464129 0.549293
vt 0.496513 0.613688
vt 0.377480 0.392770
vt 0.337097 0.403542
vt 0.302001 0.335977
vt 0.369109 0.321810
vt 0.333517 0.229644
vt 0.292941 0.287469
vt 0.312739 0.109072
vt 0.255135 0.056314
vt 0.312037 0.520749
vt 0.255607 0.564914
vt 0.312739 0.420768
vt 0.255135 0.368010
vt 0.333517 0.541340
vt 0.292942 0.599165
vt 0.464129 0.237597
vt 0.496513 0.301992
vt 0.927508 0.960344
vt 0.927508 0.976506
vt 0.921408 0.981367
vt 0.921408 0.955483
vt 0.960638 0.984099
vt 0.966738 0.991756
vt 0.927508 0.945196
vt 0.960638 0.937603
vt 0.966738 0.942464
vt 0.921408 0.952853
vt 0.960638 0.921441
vt 0.966738 0.916580
vt 0.927508 0.913848
vt 0.921408 0.906191
vt 0.960638 0.952751
vt 0.966738 0.945094
vt 0.929601 0.776294
vt 0.895613 0.776294
vt 0.895613 0.564247
vt 0.929601 0.564247
vt 0.960949 0.776294
vt 0.960949 0.564247
vt 0.994937 0.564247
vt 0.994937 0.776294
vt 0.879450 0.564247
vt 0.879450 0.776294
vt 0.996012 0.783331
vt 0.996012 0.995379
vt 0.970128 0.995379
vt 0.970128 0.783331
vt 0.647598 0.290132
vt 0.680462 0.290132
vt 0.649645 0.011744
vt 0.680462 0.011744
vt 0.649047 0.555576
vt 0.680462 0.555576
vt 0.610315 0.290132
vt 0.610315 0.255478
vt 0.610315 0.034907
vt 0.610315 0.011744
vt 0.610315 0.555576
vt 0.718943 0.255478
vt 0.718943 0.290132
vt 0.718943 0.034907
vt 0.718943 0.011744
vt 0.718943 0.555576
vt 0.419474 0.252298
vt 0.426172 0.318808
vt 0.473379 0.415545
vt 0.513404 0.356474
vt 0.419474 0.563994
vt 0.426172 0.630504
vt 0.473379 0.103849
vt 0.513404 0.044778
vt 0.406193 0.873386
vt 0.408088 0.890114
vt 0.775783 0.685107
vt 0.780050 0.670434
vt 0.722858 0.873790
vt 0.724811 0.891037
vt 0.457527 0.690378
vt 0.461666 0.676147
vt 0.212318 0.149431
vt 0.000271 0.149431
vt 0.940640 0.179795
vt 0.940640 0.018116
vt 0.000271 0.738838
vt 0.212318 0.738838
vt 0.798860 0.216027
vt 0.798860 0.377706
vt 0.662827 0.872855
vt 0.663623 0.889662
vt 0.347968 0.872479
vt 0.348740 0.888781
vt 0.369834 0.558082
vt 0.351035 0.625353
vt 0.369834 0.246386
vt 0.351035 0.313657
vt 0.429841 0.395600
vt 0.447122 0.328679
vt 0.429841 0.083904
vt 0.447122 0.016983
vt 0.722857 0.666418
vt 0.724811 0.649171
vt 0.406193 0.672251
vt 0.408088 0.655523
vt 0.212318 0.206842
vt 0.000271 0.206842
vt 0.889559 0.197640
vt 0.889559 0.000271
vt 0.000271 0.681427
vt 0.212318 0.681427
vt 0.849941 0.198182
vt 0.849942 0.395551
vn -1.0000 -0.0000 0.0000
vn 0.0000 0.8117 -0.5841
vn 1.0000 -0.0000 0.0000
vn 0.0000 0.8117 0.5841
vn 0.0000 0.0000 -1.0000
vn 0.0000 1.0000 0.0000
vn 0.0000 -0.2234 0.9747
vn 0.0000 -0.2234 -0.9747
vn 0.0000 -0.8470 0.5317
vn 0.0000 -0.8470 -0.5317
vn 0.0000 0.5363 0.8440
vn 0.0000 0.5363 -0.8440
vn 0.0000 0.3066 -0.9518
vn 0.0000 0.3066 0.9518
vn -0.2262 -0.7906 -0.5690
vn -0.2262 -0.9741 0.0000
vn 0.2262 -0.9741 0.0000
vn -0.2262 0.8250 0.5179
vn 0.2262 0.8250 0.5179
vn 0.2262 0.8250 -0.5179
vn 0.2262 0.9741 0.0000
vn -0.2262 0.9741 0.0000
vn -0.2262 0.8250 -0.5179
vn -0.2504 -0.2575 0.9333
vn 0.2403 0.5593 0.7934
vn 0.2504 -0.2575 -0.9333
vn -0.2187 -0.5602 -0.7990
vn -0.2262 -0.7906 0.5690
vn 0.2262 -0.7906 0.5690
vn 0.2262 -0.7906 -0.5690
vn -0.2187 -0.5602 0.7990
vn 0.2187 -0.5602 0.7990
vn 0.2187 -0.5602 -0.7990
vn -0.2403 0.5593 -0.7934
vn 0.0000 0.2234 -0.9747
vn 0.0000 -1.0000 0.0000
vn 0.0000 0.2234 0.9747
vn 0.0000 0.0000 1.0000
vn -0.9274 0.3741 0.0000
vn 0.0000 0.3972 -0.9177
vn 0.9274 0.3741 0.0000
vn 0.0000 0.3972 0.9177
vn -0.9274 -0.3741 0.0000
vn 0.0000 -0.3972 -0.9177
vn 0.9274 -0.3741 0.0000
vn 0.0000 -0.3972 0.9177
vn -0.2677 0.3193 -0.9091
vn 0.2403 0.5593 -0.7934
vn 0.2677 0.3193 0.9091
vn -0.2403 0.5593 0.7934
vn 0.0000 -0.5800 0.8146
vn 0.0000 -0.5800 -0.8146
vn 0.2818 -0.0146 0.9594
vn -0.2818 -0.0146 -0.9594
vn 0.2677 0.3193 -0.9091
vn -0.2677 0.3193 0.9091
vn -0.0000 -0.3592 0.9332
vn 0.0000 -0.3592 -0.9332
vn -0.2504 -0.2575 -0.9333
vn 0.2504 -0.2575 0.9333
vn 0.2818 -0.0146 -0.9594
vn -0.2818 -0.0146 0.9594
vn 0.0000 0.0225 0.9997
vn 0.0000 0.0225 -0.9997
usemtl Material.001
s off
f 45/1/1 2/2/1 4/3/1 62/4/1
f 42/5/2 27/6/2 28/7/2 43/8/2
f 63/9/3 8/10/3 6/11/3 64/12/3
f 44/13/4 29/14/4 26/15/4 25/16/4
f 65/17/5 69/18/5 75/19/5 73/20/5
f 28/7/6 27/6/6 26/15/6 29/14/6
f 80/21/7 71/22/7 72/23/7 78/24/7
f 77/25/8 67/26/8 68/27/8 79/28/8
f 71/22/9 34/29/9 37/30/9 72/23/9
f 11/31/3 52/32/3 54/33/3 12/34/3
f 67/26/10 30/35/10 32/36/10 68/27/10
f 9/37/1 57/38/1 50/39/1 10/40/1
f 40/41/11 44/13/11 25/16/11 41/42/11
f 59/43/3 63/9/3 64/12/3 60/44/3
f 38/45/12 42/5/12 43/8/12 39/46/12
f 61/47/1 45/1/1 62/4/1 58/48/1
f 111/49/1 61/47/1 58/48/1 118/50/1
f 112/51/13 38/45/13 39/46/13 113/52/13
f 119/53/3 59/43/3 60/44/3 120/54/3
f 114/55/14 40/41/14 41/42/14 109/56/14
f 46/57/1 17/58/1 25/59/1 26/60/1
f 47/61/1 46/57/1 26/60/1 27/62/1
f 49/63/3 48/64/3 28/65/3 29/66/3
f 51/67/1 14/68/1 30/69/1 67/70/1
f 15/71/3 53/72/3 68/73/3 32/74/3
f 55/75/3 16/76/3 34/77/3 71/78/3
f 53/72/3 55/75/3 71/78/3 68/73/3
f 56/79/1 51/67/1 67/70/1 72/80/1
f 13/81/1 56/79/1 72/80/1 37/82/1
f 115/83/1 21/84/1 38/85/1 112/86/1
f 90/87/3 15/71/3 32/74/3 86/88/3
f 117/89/3 23/90/3 40/91/3 114/92/3
f 17/58/1 24/93/1 41/94/1 25/59/1
f 18/95/1 47/61/1 27/62/1 42/96/1
f 48/64/3 19/97/3 43/98/3 28/65/3
f 20/99/3 49/63/3 29/66/3 44/100/3
f 21/84/1 18/95/1 42/96/1 38/85/1
f 19/97/3 22/101/3 39/102/3 43/98/3
f 23/90/3 20/99/3 44/100/3 40/91/3
f 92/103/1 13/81/1 37/82/1 88/104/1
f 2/105/15 45/106/15 17/107/15 46/108/15
f 4/109/16 2/105/16 46/108/16 47/110/16
f 6/111/17 8/112/17 48/113/17 49/114/17
f 10/115/18 50/116/18 14/117/18 51/118/18
f 52/119/19 11/120/19 53/121/19 15/122/19
f 12/123/20 54/124/20 16/125/20 55/126/20
f 11/120/21 12/123/21 55/126/21 53/121/21
f 9/127/22 10/115/22 51/118/22 56/128/22
f 57/129/23 9/127/23 56/128/23 13/130/23
f 118/131/24 58/132/24 21/133/24 115/134/24
f 94/135/25 52/119/25 15/122/25 90/136/25
f 120/137/26 60/138/26 23/139/26 117/140/26
f 45/106/27 61/141/27 24/142/27 17/107/27
f 62/143/28 4/109/28 47/110/28 18/144/28
f 8/112/29 63/145/29 19/146/29 48/113/29
f 64/147/30 6/111/30 49/114/30 20/148/30
f 58/132/31 62/143/31 18/144/31 21/133/31
f 63/145/32 59/149/32 22/150/32 19/146/32
f 60/138/33 64/147/33 20/148/33 23/139/33
f 96/151/34 57/129/34 13/130/34 92/152/34
f 1/153/1 3/154/1 77/155/1 78/156/1
f 3/154/1 31/157/1 67/158/1 77/155/1
f 33/159/3 7/160/3 79/161/3 68/162/3
f 7/160/3 5/163/3 80/164/3 79/161/3
f 5/163/3 35/165/3 71/166/3 80/164/3
f 36/167/1 1/153/1 78/156/1 72/168/1
f 35/165/3 33/159/3 68/162/3 71/166/3
f 31/157/1 36/167/1 72/168/1 67/158/1
f 35/169/35 5/170/35 1/171/35 36/172/35
f 33/173/36 35/169/36 36/172/36 31/174/36
f 3/175/37 7/176/37 33/173/37 31/174/37
f 3/177/6 1/171/6 5/170/6 7/178/6
f 81/179/36 83/180/36 84/181/36 82/182/36
f 66/183/1 65/17/1 73/20/1 74/184/1
f 69/18/3 70/185/3 76/186/3 75/19/3
f 70/187/38 66/183/38 74/184/38 76/188/38
f 65/17/39 66/183/39 78/189/39 77/190/39
f 69/18/40 65/17/40 77/190/40 79/191/40
f 70/185/41 69/18/41 79/191/41 80/192/41
f 66/183/42 70/187/42 80/193/42 78/189/42
f 74/184/43 73/20/43 81/194/43 82/195/43
f 73/20/44 75/19/44 83/196/44 81/194/44
f 75/19/45 76/186/45 84/197/45 83/196/45
f 76/188/46 74/184/46 82/195/46 84/198/46
f 99/199/47 96/151/47 92/152/47 98/200/47
f 54/124/48 95/201/48 91/202/48 16/125/48
f 107/203/49 94/135/49 90/136/49 104/204/49
f 50/116/50 93/205/50 89/206/50 14/117/50
f 98/207/1 92/103/1 88/104/1 97/208/1
f 16/76/3 91/209/3 87/210/3 34/77/3
f 104/211/3 90/87/3 86/88/3 101/212/3
f 14/68/1 89/213/1 85/214/1 30/69/1
f 34/29/51 87/215/51 88/216/51 37/30/51
f 52/32/3 94/217/3 95/218/3 54/33/3
f 30/35/52 85/219/52 86/220/52 32/36/52
f 57/38/1 96/221/1 93/222/1 50/39/1
f 116/223/3 104/211/3 101/212/3 113/224/3
f 110/225/1 98/207/1 97/208/1 109/226/1
f 119/227/53 107/203/53 104/204/53 116/228/53
f 111/229/54 99/199/54 98/200/54 110/230/54
f 95/201/55 108/231/55 105/232/55 91/202/55
f 93/205/56 106/233/56 103/234/56 89/206/56
f 91/209/3 105/235/3 102/236/3 87/210/3
f 89/213/1 103/237/1 100/238/1 85/214/1
f 87/215/57 102/239/57 97/240/57 88/216/57
f 94/217/3 107/241/3 108/242/3 95/218/3
f 85/219/58 100/243/58 101/244/58 86/220/58
f 96/221/1 99/245/1 106/246/1 93/222/1
f 61/141/59 111/229/59 110/230/59 24/142/59
f 59/149/60 119/227/60 116/228/60 22/150/60
f 24/93/1 110/225/1 109/226/1 41/94/1
f 22/101/3 116/223/3 113/224/3 39/102/3
f 108/231/61 120/137/61 117/140/61 105/232/61
f 106/233/62 118/131/62 115/134/62 103/234/62
f 105/235/3 117/89/3 114/92/3 102/236/3
f 103/237/1 115/83/1 112/86/1 100/238/1
f 102/239/63 114/55/63 109/56/63 97/240/63
f 107/241/3 119/53/3 120/54/3 108/242/3
f 100/243/64 112/51/64 113/52/64 101/244/64
f 99/245/1 111/49/1 118/50/1 106/246/1
